<svg width="24" height="19" viewBox="0 0 24 19" fill="none" xmlns="http://www.w3.org/2000/svg">
<path d="M16.6922 12.5L20.4922 9.25L23.4922 9.5L19.0922 13.325L20.3922 19L17.8422 17.45L16.6922 12.5ZM14.3422 5.2L13.2922 2.75L14.4422 0L16.7422 5.425L14.3422 5.2ZM7.34219 14.825L10.4922 12.925L13.6422 14.85L12.8172 11.25L15.5922 8.85L11.9422 8.525L10.4922 5.125L9.04219 8.5L5.39219 8.825L8.16719 11.25L7.34219 14.825ZM4.31719 19L5.94219 11.975L0.492188 7.25L7.69219 6.625L10.4922 0L13.2922 6.625L20.4922 7.25L15.0422 11.975L16.6672 19L10.4922 15.275L4.31719 19Z" fill="#FFF8EE"/>
</svg>
