<svg width="20" height="20" viewBox="0 0 20 20" fill="none" xmlns="http://www.w3.org/2000/svg">
<path d="M10 20C8.78333 19.85 7.575 19.5207 6.375 19.012C5.175 18.504 4.104 17.775 3.162 16.825C2.22067 15.875 1.45833 14.675 0.875 13.225C0.291667 11.775 0 10.0333 0 8V7H1C1.85 7 2.725 7.10833 3.625 7.325C4.525 7.54167 5.36667 7.86667 6.15 8.3C6.35 6.86667 6.80433 5.39567 7.513 3.887C8.221 2.379 9.05 1.08333 10 0C10.95 1.08333 11.7793 2.379 12.488 3.887C13.196 5.39567 13.65 6.86667 13.85 8.3C14.6333 7.86667 15.475 7.54167 16.375 7.325C17.275 7.10833 18.15 7 19 7H20V8C20 10.0333 19.7083 11.775 19.125 13.225C18.5417 14.675 17.779 15.875 16.837 16.825C15.8957 17.775 14.8293 18.504 13.638 19.012C12.446 19.5207 11.2333 19.85 10 20ZM9.95 17.95C9.76667 15.1833 8.946 13.0917 7.488 11.675C6.02933 10.2583 4.21667 9.38333 2.05 9.05C2.23333 11.9 3.07933 14.025 4.588 15.425C6.096 16.825 7.88333 17.6667 9.95 17.95ZM10 11.6C10.25 11.2333 10.5543 10.854 10.913 10.462C11.271 10.0707 11.6167 9.73333 11.95 9.45C11.9167 8.5 11.729 7.50833 11.387 6.475C11.0457 5.44167 10.5833 4.43333 10 3.45C9.41667 4.43333 8.95433 5.44167 8.613 6.475C8.271 7.50833 8.08333 8.5 8.05 9.45C8.38333 9.73333 8.73333 10.0707 9.1 10.462C9.46667 10.854 9.76667 11.2333 10 11.6ZM11.95 17.5C12.5667 17.3 13.2083 17.0083 13.875 16.625C14.5417 16.2417 15.1627 15.7207 15.738 15.062C16.3127 14.404 16.8043 13.5833 17.213 12.6C17.621 11.6167 17.8667 10.4333 17.95 9.05C16.3833 9.28333 15.0083 9.804 13.825 10.612C12.6417 11.4207 11.7333 12.45 11.1 13.7C11.3 14.2333 11.471 14.8167 11.613 15.45C11.7543 16.0833 11.8667 16.7667 11.95 17.5Z" fill="#FFF8EE"/>
</svg>
