<svg width="24" height="19" viewBox="0 0 24 19" fill="none" xmlns="http://www.w3.org/2000/svg">
<path d="M0.95 10.3C0.65 9.7 0.416667 9.09167 0.25 8.475C0.0833333 7.85833 0 7.23333 0 6.6C0 4.73333 0.633333 3.16667 1.9 1.9C3.16667 0.633333 4.73333 0 6.6 0C7.65 0 8.65 0.220667 9.6 0.662C10.55 1.104 11.35 1.71667 12 2.5C12.65 1.71667 13.45 1.104 14.4 0.662C15.35 0.220667 16.35 0 17.4 0C19.2667 0 20.8333 0.633333 22.1 1.9C23.3667 3.16667 24 4.73333 24 6.6C24 7.23333 23.9167 7.85833 23.75 8.475C23.5833 9.09167 23.35 9.7 23.05 10.3C22.8667 9.98333 22.65 9.7 22.4 9.45C22.15 9.2 21.8583 9 21.525 8.85C21.675 8.46667 21.7917 8.09167 21.875 7.725C21.9583 7.35833 22 6.98333 22 6.6C22 5.3 21.5583 4.20833 20.675 3.325C19.7917 2.44167 18.7 2 17.4 2C16.05 2 15.0127 2.37067 14.288 3.112C13.5627 3.854 12.8 4.68333 12 5.6C11.2 4.66667 10.4377 3.83333 9.713 3.1C8.98767 2.36667 7.95 2 6.6 2C5.3 2 4.20833 2.44167 3.325 3.325C2.44167 4.20833 2 5.3 2 6.6C2 6.98333 2.04167 7.35833 2.125 7.725C2.20833 8.09167 2.325 8.46667 2.475 8.85C2.14167 9 1.85 9.2 1.6 9.45C1.35 9.7 1.13333 9.98333 0.95 10.3ZM0 19V17.425C0 16.6917 0.371 16.1043 1.113 15.663C1.85433 15.221 2.81667 15 4 15C4.21667 15 4.425 15.004 4.625 15.012C4.825 15.0207 5.01667 15.0417 5.2 15.075C4.96667 15.4083 4.79167 15.7667 4.675 16.15C4.55833 16.5333 4.5 16.9417 4.5 17.375V19H0ZM6 19V17.375C6 16.2917 6.55433 15.4167 7.663 14.75C8.771 14.0833 10.2167 13.75 12 13.75C13.8 13.75 15.25 14.0833 16.35 14.75C17.45 15.4167 18 16.2917 18 17.375V19H6ZM19.5 19V17.375C19.5 16.9417 19.4457 16.5333 19.337 16.15C19.229 15.7667 19.0667 15.4083 18.85 15.075C19.0333 15.0417 19.221 15.0207 19.413 15.012C19.6043 15.004 19.8 15 20 15C21.2 15 22.1667 15.221 22.9 15.663C23.6333 16.1043 24 16.6917 24 17.425V19H19.5ZM12 15.75C11.05 15.75 10.2 15.875 9.45 16.125C8.7 16.375 8.25833 16.6667 8.125 17H15.9C15.75 16.6667 15.304 16.375 14.562 16.125C13.8207 15.875 12.9667 15.75 12 15.75ZM4 14C3.45 14 2.97933 13.8043 2.588 13.413C2.196 13.021 2 12.55 2 12C2 11.4333 2.196 10.9583 2.588 10.575C2.97933 10.1917 3.45 10 4 10C4.56667 10 5.04167 10.1917 5.425 10.575C5.80833 10.9583 6 11.4333 6 12C6 12.55 5.80833 13.021 5.425 13.413C5.04167 13.8043 4.56667 14 4 14ZM20 14C19.45 14 18.979 13.8043 18.587 13.413C18.1957 13.021 18 12.55 18 12C18 11.4333 18.1957 10.9583 18.587 10.575C18.979 10.1917 19.45 10 20 10C20.5667 10 21.0417 10.1917 21.425 10.575C21.8083 10.9583 22 11.4333 22 12C22 12.55 21.8083 13.021 21.425 13.413C21.0417 13.8043 20.5667 14 20 14ZM12 13C11.1667 13 10.4583 12.7083 9.875 12.125C9.29167 11.5417 9 10.8333 9 10C9 9.15 9.29167 8.43767 9.875 7.863C10.4583 7.28767 11.1667 7 12 7C12.85 7 13.5623 7.28767 14.137 7.863C14.7123 8.43767 15 9.15 15 10C15 10.8333 14.7123 11.5417 14.137 12.125C13.5623 12.7083 12.85 13 12 13ZM12 9C11.7167 9 11.4793 9.09567 11.288 9.287C11.096 9.479 11 9.71667 11 10C11 10.2833 11.096 10.5207 11.288 10.712C11.4793 10.904 11.7167 11 12 11C12.2833 11 12.521 10.904 12.713 10.712C12.9043 10.5207 13 10.2833 13 10C13 9.71667 12.9043 9.479 12.713 9.287C12.521 9.09567 12.2833 9 12 9Z" fill="#FFF8EE"/>
</svg>
